<svg xmlns="http://www.w3.org/2000/svg" xml:space="preserve" width="2048" height="2048"
  style="shape-rendering:geometricPrecision;text-rendering:geometricPrecision;image-rendering:optimizeQuality;fill-rule:evenodd;clip-rule:evenodd"><defs><style>.fil1{fill:none; stroke:white}</style></defs><g id="Layer_x0020_1"><path stroke-dasharray="155,155" d="M1024 255.999c212.073 0 404.074 85.963 543.056 224.945 138.982 138.982 224.945 330.983 224.945 543.056 0 212.073-85.963 404.074-224.945 543.056-138.982 138.982-330.983 224.945-543.056 224.945-212.073 0-404.074-85.963-543.056-224.945C341.962 1428.074 255.999 1236.073 255.999 1024c0-212.073 85.963-404.074 224.945-543.056C619.926 341.962 811.927 255.999 1024 255.999z" style="fill:none;fill-rule:nonzero;stroke:black;stroke-width:45"></path><g id="_244790208"><path id="_244791168" class="fil1" d="M0 0h2048v2048H0z"></path><path id="_244791192" class="fil1" d="M255.999 255.999h1536v1536h-1536z"></path></g></g></svg>
