<svg xmlns="http://www.w3.org/2000/svg" viewBox="0 0 122.11 122.18">
  <g data-name="Layer 2">
    <path data-name="Free Positioning - Polygone"
      d="m100.31 106.28-50.49 13.61a8.59 8.59 0 0 1-8.28-2.21l-8.1-8.08L22.9 99.09l-9.77-9.75-8.61-8.58a8.55 8.55 0 0 1-2.23-8.27L15.75 22a8.57 8.57 0 0 1 6.05-6.1L72.29 2.3a8.56 8.56 0 0 1 8.28 2.2l37 36.92a8.56 8.56 0 0 1 2.23 8.27l-13.46 50.53a8.56 8.56 0 0 1-6.03 6.06z"
      style="fill:none;stroke:white;stroke-linecap:round;stroke-linejoin:round;stroke-width:4px;stroke-dasharray:6 15" />
  </g>
</svg>
